D:\PredSimResults\Vitruvian_Man\IG_v40ms_ATx70.mot
version=1
nRows=6
nColumns=31
inDegrees=yes
endheader
                time	         pelvis_tilt	           pelvis_tx	           pelvis_ty	       hip_flexion_r	        knee_angle_r	       ankle_angle_r	       hip_flexion_l	        knee_angle_l	       ankle_angle_l	    lumbar_extension	          arm_flex_r	          arm_flex_l	hamstrings_r/activation	bifemsh_r/activation	glut_max_r/activation	iliopsoas_r/activation	rect_fem_r/activation	  vasti_r/activation	gastroc_r/activation	 soleus_r/activation	tib_ant_r/activation	hamstrings_l/activation	bifemsh_l/activation	glut_max_l/activation	iliopsoas_l/activation	rect_fem_l/activation	  vasti_l/activation	gastroc_l/activation	 soleus_l/activation	tib_ant_l/activation	
          0.31560841	         -1.08005618	          1.26243365	          1.00558158	         -8.94126560	        -35.81284780	         -9.94560498	         23.15088421	         -8.65593442	          9.72799518	        -10.90759769	         39.76805095	         39.76805095	          0.05000009	          0.99963366	          0.05000004	          0.99991959	          0.99656639	          0.05000003	          0.82639474	          0.09843416	          0.99950609	          0.98476943	          0.30263673	          0.53805896	          0.10070804	          0.06749845	          0.09582627	          0.08707985	          0.06872723	          0.93127017	
          0.32192058	         -0.99602284	          1.28757121	          1.00207433	         -7.47729295	        -37.61677724	         -9.03563325	         22.45491172	         -9.77354048	          9.29682868	        -11.14834286	         38.97570845	         38.97570845	          0.05000006	          0.99974213	          0.05000005	          0.99994339	          0.99758329	          0.05000002	          0.87780902	          0.08906435	          0.99965222	          0.98928035	          0.27382916	          0.67487513	          0.09112179	          0.06107361	          0.08670470	          0.07879083	          0.06218518	          0.95162635	
          0.32823275	         -0.94337683	          1.31235978	          0.99828434	         -5.83250772	        -39.47299493	         -8.12875062	         21.97723593	        -11.54970953	          8.56854620	        -11.39200040	         38.33426922	         38.33426922	          0.05526037	          0.99981846	          0.05000016	          0.99996012	          0.99829894	          0.05000007	          0.91399864	          0.08058649	          0.99975339	          0.99245525	          0.24776374	          0.77116954	          0.08244803	          0.05526012	          0.07845141	          0.07129084	          0.05626585	          0.96595350	
          0.33454492	         -0.92660913	          1.33650552	          0.99459835	         -3.96311370	        -41.37832203	         -7.31180390	         21.84080451	        -13.73287149	          7.38836458	        -11.67544606	         37.84344059	         37.84344059	          0.05000024	          0.99987219	          0.05000003	          0.99997191	          0.99880268	          0.05000003	          0.93940712	          0.07291558	          0.99982629	          0.99468979	          0.22417946	          0.83894379	          0.07459993	          0.05000001	          0.07098373	          0.06450476	          0.05090998	          0.97603728	
          0.34085709	         -0.94262498	          1.35993791	          0.99116739	         -1.87425602	        -43.31057846	         -6.45400570	         22.14317164	        -16.50794854	          5.92318145	        -12.00924967	         37.50429980	         37.50429980	          0.05051413	          0.99991001	          0.05000011	          0.99998019	          0.99915714	          0.05000003	          0.86890607	          0.06597485	          0.99987755	          0.90000663	          0.20284012	          0.88664489	          0.06749887	          0.05000013	          0.34613673	          0.05836464	          0.05526014	          0.94018382	
          0.34716925	         -0.99929969	          1.38292816	          0.98784164	          0.39261797	        -45.22652940	         -5.45492095	         22.73621318	        -19.77285914	          5.20084008	        -12.34002452	         37.31716274	         37.31716274	          0.13517177	          0.99993663	          0.05000004	          0.99998596	          0.99940631	          0.05000003	          0.90773237	          0.06525820	          0.99990873	          0.81433837	          0.18353205	          0.92021803	          0.06107375	          0.05000021	          0.53979581	          0.05280899	          0.05000001	          0.94428946	
